HIERARCHY
ROOT Hips
{
	OFFSET	0.00	0.00	0.00
	CHANNELS 6 Xposition Yposition Zposition Zrotation Xrotation Yrotation
	JOINT LeftUpLeg
	{
		OFFSET	 0.126116	-0.014019	-0.065224
		CHANNELS 3 Zrotation Xrotation Yrotation
		JOINT LeftLeg
		{
			OFFSET	 0.000000	 0.000000	 0.569914
			CHANNELS 3 Zrotation Xrotation Yrotation
			JOINT LeftFoot
			{
				OFFSET	 0.000000	 0.000000	 0.544423
				CHANNELS 3 Zrotation Xrotation Yrotation
				JOINT LeftToeBase
				{
					OFFSET	 0.000000	 0.000000	 0.207117
					CHANNELS 3 Zrotation Xrotation Yrotation
					End Site
					{
						OFFSET	 0.000000	 0.000000	 0.207117
					}
				}
			}
		}
	}
	JOINT RightUpLeg
	{
		OFFSET	-0.124023	-0.008373	-0.065224
		CHANNELS 3 Zrotation Xrotation Yrotation
		JOINT RightLeg
		{
			OFFSET	 0.000000	 0.000000	 0.570047
			CHANNELS 3 Zrotation Xrotation Yrotation
			JOINT RightFoot
			{
				OFFSET	 0.000000	 0.000000	 0.544354
				CHANNELS 3 Zrotation Xrotation Yrotation
				JOINT RightToeBase
				{
					OFFSET	 0.000000	 0.000000	 0.207540
					CHANNELS 3 Zrotation Xrotation Yrotation
					End Site
					{
						OFFSET	 0.000000	 0.000000	 0.207540
					}
				}
			}
		}
	}
	JOINT Spine
	{
		OFFSET	 0.000184	-0.007763	 0.117403
		CHANNELS 3 Zrotation Xrotation Yrotation
		JOINT Spine1
		{
			OFFSET	 0.000000	 0.000000	 0.137269
			CHANNELS 3 Zrotation Xrotation Yrotation
			JOINT Spine2
			{
				OFFSET	 0.000000	 0.000000	 0.156879
				CHANNELS 3 Zrotation Xrotation Yrotation
				JOINT LeftShoulder
				{
					OFFSET	 0.080501	-0.002496	 0.160144
					CHANNELS 3 Zrotation Xrotation Yrotation
					JOINT LeftArm
					{
						OFFSET	 0.000000	 0.000000	 0.164363
						CHANNELS 3 Zrotation Xrotation Yrotation
						JOINT LeftForeArm
						{
							OFFSET	 0.000000	 0.000000	 0.364576
							CHANNELS 3 Zrotation Xrotation Yrotation
							JOINT LeftHand
							{
								OFFSET	 0.000000	 0.000000	 0.360812
								CHANNELS 3 Zrotation Xrotation Yrotation
								JOINT LeftHandIndex1
								{
									OFFSET	 0.000000	 0.000000	 0.086006
									CHANNELS 3 Zrotation Xrotation Yrotation
									JOINT LeftHandIndex2
									{
										OFFSET	 0.000000	 0.000000	 0.047236
										CHANNELS 3 Zrotation Xrotation Yrotation
										JOINT LeftHandIndex3
										{
											OFFSET	-0.004284	-0.000551	 0.038166
											CHANNELS 3 Zrotation Xrotation Yrotation
											End Site
											{
												OFFSET	-0.004284	-0.000551	 0.038166
											}
										}
									}
								}
							}
						}
					}
				}
				JOINT Neck
				{
					OFFSET	 0.000000	 0.000000	 0.176489
					CHANNELS 3 Zrotation Xrotation Yrotation
					JOINT Head
					{
						OFFSET	 0.000000	-0.001747	 0.077940
						CHANNELS 3 Zrotation Xrotation Yrotation
						End Site
						{
							OFFSET	 0.000000	-0.001747	 0.077940
						}
					}
				}
				JOINT RightShoulder
				{
					OFFSET	-0.080363	 0.000306	 0.159706
					CHANNELS 3 Zrotation Xrotation Yrotation
					JOINT RightArm
					{
						OFFSET	 0.000000	 0.000000	 0.164196
						CHANNELS 3 Zrotation Xrotation Yrotation
						JOINT RightForeArm
						{
							OFFSET	 0.000000	 0.000000	 0.365611
							CHANNELS 3 Zrotation Xrotation Yrotation
							JOINT RightHand
							{
								OFFSET	 0.000000	 0.000000	 0.360648
								CHANNELS 3 Zrotation Xrotation Yrotation
								JOINT RightHandIndex1
								{
									OFFSET	 0.000000	 0.000000	 0.069977
									CHANNELS 3 Zrotation Xrotation Yrotation
									JOINT RightHandIndex2
									{
										OFFSET	 0.000000	 0.000000	 0.052305
										CHANNELS 3 Zrotation Xrotation Yrotation
										JOINT RightHandIndex3
										{
											OFFSET	 0.009002	-0.000782	 0.042196
											CHANNELS 3 Zrotation Xrotation Yrotation
											End Site
											{
												OFFSET	 0.009002	-0.000782	 0.042196
											}
										}
									}
								}
							}
						}
					}
				}
			}
		}
	}
}
MOTION
Frames:    13
Frame Time: 0.03333334
-0.056334	-2.225118	 1.205304	 4.111139	-1.583353	-2.839249	-6.185358	-13.135680	-170.685800	 0.388859	-37.933650	 0.019409	 43.047900	 79.547670	-46.601540	-2.371173	 31.314680	-0.063137	 3.703736	-28.443980	-175.717500	 10.236490	-52.664810	 8.742654	 14.254500	 70.722730	-10.416680	 2.357959	 33.148970	 0.106684	-5.181161	 8.873516	 2.106315	-1.731597	 2.056583	-1.126891	 2.304736	-1.861862	 1.133785	-93.785570	 58.879110	 175.724200	 24.299830	 44.938950	-21.752030	-1.000402	-2.823419	-23.895730	-0.958989	-20.110650	-6.404866	-4.869427	 19.240960	-2.786450	-3.890089	 21.363120	 2.211461	-4.808243	 5.545675	 0.146960	-0.121086	-5.021198	 0.161118	 0.044311	 2.205822	 2.858489	 89.826930	 61.588560	-179.893300	-20.304360	 51.647100	 13.991060	-1.534157	-1.421280	 7.349786	-4.719645	-6.109864	 0.749118	 6.303356	 25.877210	-0.573404	 1.744825	 45.812840	-6.867325	 0.367220	 24.969560	 3.649664
-0.056763	-2.233191	 1.205350	 4.557336	-1.347935	-2.807189	-6.573254	-12.934560	-170.737900	 0.743816	-37.796610	 0.197253	 43.213930	 79.606070	-47.012770	-2.370396	 31.447320	-0.066133	 2.697186	-29.202440	-175.608400	 10.464740	-51.659840	 8.845779	 18.301940	 73.528820	-15.018520	 2.358414	 33.082740	 0.105148	-5.664227	 8.757715	 2.053869	-1.803674	 1.871205	-1.194023	 2.451307	-1.846298	 1.243120	-93.867880	 58.944640	 175.541100	 24.605150	 44.377420	-22.101000	-1.455284	-2.709919	-24.625260	-0.891938	-20.081540	-7.171258	-4.869228	 19.245060	-2.786479	-3.886802	 21.405240	 2.208112	-4.808259	 5.545506	 0.146967	-0.096512	-5.050521	 0.173631	 0.271335	 2.148944	 2.780814	 89.801130	 61.621310	-179.954800	-20.029180	 51.850690	 13.685010	-1.684489	-1.313772	 6.705425	-4.758915	-5.719611	 0.653444	 6.298006	 25.314810	-0.555220	 1.824411	 45.189760	-6.938583	 0.460994	 24.561800	 3.601487
-0.057387	-2.245174	 1.205238	 5.138410	-1.003115	-2.778221	-7.243299	-12.656080	-170.839100	 1.026974	-37.604470	 0.411452	 43.542110	 79.729490	-47.633650	-2.369377	 31.618390	-0.070007	 1.439894	-30.290950	-175.429700	 10.795520	-50.098500	 8.912733	 26.346110	 76.709830	-23.864190	 2.358916	 33.007950	 0.103404	-6.263674	 8.576351	 1.971892	-1.893351	 1.644941	-1.254730	 2.610037	-1.839413	 1.365514	-93.980670	 59.016690	 175.291200	 24.926260	 43.549350	-22.527170	-1.964514	-2.605013	-25.763110	-0.788481	-20.035780	-8.090162	-4.868268	 19.269570	-2.788083	-3.881886	 21.468240	 2.203117	-4.807709	 5.552045	 0.146588	-0.064941	-5.086005	 0.194101	 0.533112	 2.076504	 2.686166	 89.764030	 61.667870	 179.957000	-19.656240	 52.127040	 13.191680	-1.919723	-1.183327	 5.916542	-4.842458	-5.184866	 0.515891	 6.290074	 24.532070	-0.537888	 1.928898	 44.347350	-7.031765	 0.597911	 23.961060	 3.532125
-0.057965	-2.256933	 1.204952	 5.599146	-0.567549	-2.784604	-7.720024	-12.464680	-170.905700	 1.199748	-37.418750	 0.514707	 43.816380	 79.847720	-48.043540	-2.368596	 31.747480	-0.072929	 0.248619	-31.451150	-175.272900	 11.225540	-48.422990	 9.022127	 36.258380	 78.915250	-34.576670	 2.359004	 32.995880	 0.103125	-6.681251	 8.296456	 1.865097	-1.973262	 1.453549	-1.236577	 2.714082	-1.841977	 1.430693	-94.095250	 59.018670	 175.046500	 24.996400	 42.742870	-22.752600	-2.168137	-2.640443	-26.954670	-0.471589	-20.079800	-8.506019	-4.864633	 19.368360	-2.795763	-3.875351	 21.551810	 2.196477	-4.804901	 5.585109	 0.144655	-0.041603	-5.103050	 0.227527	 0.712165	 2.025793	 2.637589	 89.720390	 61.720660	 179.852500	-19.321740	 52.378930	 12.693440	-2.281322	-1.085492	 5.258097	-5.045239	-4.703264	 0.353424	 6.278443	 23.702680	-0.549510	 2.024644	 43.550530	-7.116740	 0.770118	 23.196220	 3.446560
-0.058594	-2.271525	 1.204345	 6.050249	-0.086473	-2.846399	-8.184797	-12.145810	-170.927700	 1.377145	-37.165970	 0.618921	 44.607060	 80.069100	-48.979370	-2.367580	 31.915450	-0.076741	-0.845477	-32.735600	-175.055100	 11.532630	-46.245090	 8.942920	 52.370010	 80.253900	-51.666350	 2.359425	 32.932610	 0.101661	-7.075370	 7.963716	 1.786808	-2.045304	 1.319343	-1.193889	 2.797207	-1.870015	 1.478773	-94.219220	 59.009110	 174.783400	 24.984730	 41.744590	-23.054670	-2.454657	-2.647799	-28.368600	-0.199090	-20.153330	-8.771444	-4.859211	 19.506440	-2.804795	-3.866935	 21.659010	 2.187928	-4.800727	 5.634282	 0.141772	-0.019335	-5.127548	 0.264770	 0.865720	 1.973008	 2.597250	 89.664240	 61.789010	 179.717600	-18.917030	 52.668420	 12.015490	-2.763114	-1.007490	 4.683248	-5.324806	-4.125971	 0.078615	 6.263878	 22.726970	-0.568924	 2.127508	 42.666730	-7.207584	 0.975055	 22.272740	 3.347224
-0.058939	-2.285307	 1.203555	 6.264304	 0.308196	-3.022186	-8.376919	-11.718080	-170.810100	 1.483773	-36.827290	 0.678016	 46.297260	 80.362180	-50.785450	-2.366314	 32.118330	-0.081375	-1.161559	-33.783560	-174.658900	 11.721900	-44.095870	 8.755424	 59.763660	 79.840320	-59.914020	 2.360643	 32.750350	 0.097440	-7.263086	 7.628324	 1.840280	-2.082336	 1.362808	-1.136819	 2.853166	-1.927134	 1.491041	-94.313300	 58.970070	 174.588700	 24.830980	 40.809840	-23.376200	-2.884468	-2.541553	-29.619400	-0.122516	-20.328690	-8.474958	-4.851143	 19.694500	-2.813568	-3.857009	 21.785160	 2.177846	-4.794514	 5.707464	 0.137477	-0.010507	-5.162385	 0.295855	 0.946384	 1.935314	 2.601656	 89.597710	 61.870920	 179.556800	-18.506080	 52.920520	 11.373850	-3.379524	-0.973144	 4.299275	-5.697077	-3.569412	-0.394892	 6.247587	 21.778370	-0.601661	 2.209626	 41.939570	-7.279770	 1.183879	 21.317010	 3.248859
-0.059433	-2.302723	 1.202283	 6.460441	 0.691838	-3.225714	-8.573746	-11.052370	-170.667600	 1.587949	-36.408050	 0.733223	 48.197820	 80.653930	-52.806730	-2.364066	 32.471420	-0.089464	-1.138638	-34.789040	-174.120600	 11.682750	-41.239810	 8.250581	 71.202380	 79.119750	-72.138730	 2.359964	 32.852110	 0.099792	-7.449698	 7.260261	 1.911012	-2.108174	 1.536941	-1.056357	 2.892014	-2.036380	 1.488347	-94.406220	 58.925270	 174.397700	 24.480700	 39.707350	-23.814950	-3.335027	-2.411922	-30.980590	-0.101035	-20.405770	-8.130232	-4.840992	 19.917290	-2.821052	-3.844175	 21.947760	 2.164797	-4.785796	 5.809870	 0.131454	 0.001674	-5.207179	 0.325048	 1.008612	 1.887472	 2.598111	 89.525630	 61.954780	 179.381600	-17.967550	 53.205300	 10.438590	-4.131939	-0.983153	 4.093379	-6.107024	-2.954847	-1.032894	 6.227003	 20.637780	-0.643538	 2.325458	 40.880150	-7.381003	 1.431740	 20.163610	 3.135954
-0.059945	-2.319412	 1.200836	 6.526739	 0.885335	-3.394922	-8.683060	-10.202980	-170.529600	 1.641542	-35.984370	 0.757354	 49.245030	 80.774120	-53.931460	-2.360471	 33.014540	-0.101999	-0.553362	-35.341670	-173.548300	 11.208510	-38.417900	 7.502725	 88.193630	 77.988200	-89.435840	 2.355063	 33.562170	 0.116343	-7.581451	 6.978584	 1.996134	-2.110106	 1.906163	-0.981235	 2.920804	-2.198428	 1.475805	-94.455490	 58.886640	 174.299100	 23.912630	 38.803640	-24.252780	-3.663876	-2.306698	-32.034010	-0.197878	-20.255060	-7.833608	-4.830595	 20.121970	-2.822151	-3.830297	 22.122690	 2.150700	-4.775189	 5.934461	 0.124102	 0.016218	-5.255281	 0.337075	 1.047472	 1.833857	 2.580503	 89.471890	 62.006240	 179.250700	-17.381990	 53.430550	 9.433926	-4.871497	-1.041667	 4.102742	-6.430194	-2.496995	-1.768857	 6.206080	 19.557140	-0.688025	 2.467711	 39.522500	-7.504386	 1.664253	 19.063060	 3.033939
-0.060709	-2.339237	 1.198867	 6.630125	 1.030840	-3.566950	-8.856701	-9.104578	-170.392200	 1.725989	-35.472350	 0.797024	 49.713830	 80.828980	-54.496570	-2.354352	 33.887520	-0.122406	 0.047497	-35.707200	-172.908100	 10.867970	-34.914070	 6.715968	 95.791950	 76.283580	-97.349190	 2.348429	 34.463490	 0.137664	-7.762740	 6.753993	 2.074945	-2.106226	 2.337967	-0.865942	 2.924809	-2.547232	 1.436870	-94.501260	 58.866970	 174.205000	 23.205640	 37.917030	-24.763370	-3.901740	-2.234344	-32.945490	-0.329379	-20.219430	-7.689038	-4.827092	 20.311670	-2.858178	-3.814602	 22.319540	 2.134767	-4.761404	 6.095943	 0.114540	 0.041206	-5.309277	 0.347514	 1.067718	 1.717292	 2.509301	 89.419290	 62.030140	 179.122800	-16.689990	 53.653470	 8.072328	-5.650827	-1.133109	 4.220551	-6.691513	-2.097387	-2.562591	 6.185442	 18.338130	-0.715584	 2.623165	 37.963530	-7.637908	 1.921392	 17.825490	 2.925634
-0.061758	-2.360800	 1.196503	 6.787458	 1.054179	-3.710706	-9.117283	-7.754678	-170.279700	 1.852552	-34.877880	 0.857782	 48.683910	 80.716580	-53.577320	-2.343821	 35.261270	-0.155179	 0.277040	-35.799990	-172.413700	 10.886140	-31.076140	 6.071700	 91.221330	 75.182200	-93.311710	 2.339499	 35.582800	 0.164641	-8.031273	 6.706064	 2.134074	-2.096832	 2.737289	-0.715497	 2.903160	-3.106691	 1.370607	-94.531690	 58.888890	 174.136900	 22.391640	 37.258730	-25.256860	-3.933775	-2.262759	-33.523990	-0.495658	-20.436580	-7.876513	-4.837898	 20.436680	-2.957546	-3.798199	 22.524230	 2.118110	-4.743793	 6.301664	 0.102296	 0.082483	-5.365252	 0.352864	 1.076436	 1.536631	 2.349466	 89.378210	 61.994320	 179.024900	-15.917760	 53.818360	 6.408979	-6.366060	-1.230058	 4.362401	-6.797270	-1.902697	-3.326654	 6.170631	 17.065290	-0.704488	 2.781740	 36.287100	-7.772574	 2.183892	 16.540540	 2.820122
-0.063137	-2.380821	 1.194131	 6.915126	 1.052873	-3.724797	-9.406878	-6.468716	-170.307100	 2.025886	-34.348410	 0.944224	 45.963290	 80.374220	-50.976390	-2.328753	 37.007530	-0.198131	 0.435863	-35.737450	-172.161300	 10.686820	-27.641430	 5.365654	 81.861760	 74.691640	-84.112930	 2.335747	 36.025870	 0.175493	-8.281886	 6.643326	 2.109985	-2.072306	 3.149206	-0.614349	 2.845182	-3.593378	 1.304465	-94.540850	 58.964490	 174.104900	 21.662670	 36.798050	-25.813150	-3.955734	-2.266267	-33.735810	-0.720006	-20.679570	-8.123783	-4.850405	 20.518910	-3.054672	-3.784831	 22.690220	 2.104539	-4.725669	 6.512836	 0.089656	 0.118899	-5.411612	 0.338980	 1.065487	 1.397940	 2.224074	 89.357910	 61.909880	 178.979000	-15.290270	 53.849450	 5.047831	-6.959646	-1.273314	 4.342762	-6.881935	-1.781675	-3.943446	 6.167644	 15.945870	-0.643856	 2.890680	 35.082130	-7.864114	 2.407848	 15.427480	 2.734231
-0.065325	-2.404130	 1.190714	 7.042076	 1.023048	-3.590539	-9.785579	-4.971926	-170.498900	 2.303952	-33.891490	 1.088343	 41.276960	 79.678920	-46.454240	-2.301884	 39.660120	-0.266554	 0.632071	-36.065660	-172.062300	 10.276900	-24.682060	 4.655515	 65.685590	 73.847640	-67.856440	 2.337739	 35.792830	 0.169775	-8.578396	 6.548990	 1.983159	-2.017645	 3.704256	-0.540523	 2.737813	-4.131389	 1.221352	-94.527570	 59.123530	 174.106800	 20.852760	 36.468040	-26.429070	-3.989106	-2.265379	-33.987590	-1.072071	-21.020790	-8.508459	-4.868369	 20.572950	-3.175198	-3.771480	 22.855230	 2.090977	-4.702040	 6.787102	 0.073125	 0.159299	-5.459182	 0.298783	 1.038018	 1.270816	 2.105683	 89.356640	 61.745700	 178.982100	-14.686220	 53.798580	 3.278075	-7.545194	-1.510134	 4.958825	-6.973126	-1.721354	-4.553051	 6.179488	 14.706610	-0.509053	 2.975861	 34.108360	-7.935095	 2.647882	 14.218030	 2.646515
-0.068305	-2.429988	 1.186087	 7.179308	 0.893172	-3.256803	-10.054650	-3.202524	-170.933400	 2.255298	-33.568540	 1.052270	 35.177530	 78.468800	-40.175670	-2.252216	 43.571550	-0.375891	 1.173161	-36.909800	-172.002900	 8.938592	-22.698770	 3.772423	 47.825440	 72.120640	-48.816240	 2.339381	 35.597740	 0.164998	-8.878409	 6.489088	 1.637515	-1.937093	 4.441707	-0.367397	 2.567420	-4.693096	 1.049283	-94.499150	 59.255120	 174.145600	 20.004300	 36.142280	-27.033630	-4.093673	-2.237711	-34.506910	-1.371197	-21.078750	-8.713969	-4.882318	 20.636800	-3.276335	-3.761435	 22.979060	 2.080775	-4.672839	 7.124689	 0.052617	 0.205101	-5.479748	 0.267216	 0.975667	 1.188845	 2.093190	 89.355300	 61.587230	 178.984700	-14.135100	 53.696640	 1.359577	-8.107582	-1.885526	 5.972666	-7.133467	-1.662804	-5.044392	 6.212287	 13.421530	-0.287557	 3.053947	 33.190430	-7.999685	 2.880242	 13.031650	 2.565990
